HIERARCHY
ROOT hip
{
  OFFSET 0 0 0
  CHANNELS 6 Xposition Yposition Zposition Zrotation Yrotation Xrotation
  JOINT abdomen
  {
    OFFSET 0 20.6881 -0.73152
    CHANNELS 3 Zrotation Xrotation Yrotation
    JOINT chest
    {
      OFFSET 0 11.7043 -0.48768
      CHANNELS 3 Zrotation Xrotation Yrotation
      JOINT neck
      {
        OFFSET 0 22.1894 -2.19456
        CHANNELS 3 Zrotation Xrotation Yrotation
        JOINT head
        {
          OFFSET -0.24384 7.07133 1.2192
          CHANNELS 3 Zrotation Xrotation Yrotation
          JOINT leftEye
          {
            OFFSET 4.14528 8.04674 8.04672
            CHANNELS 3 Zrotation Xrotation Yrotation
            End Site
            {
              OFFSET 1 0 0
            }
          }
          JOINT rightEye
          {
            OFFSET -3.6576 8.04674 8.04672
            CHANNELS 3 Zrotation Xrotation Yrotation
            End Site
            {
              OFFSET 1 0 0
            }
          }
        }
      }
      JOINT rCollar
      {
        OFFSET -2.68224 19.2634 -4.8768
        CHANNELS 3 Zrotation Xrotation Yrotation
        JOINT rShldr
        {
          OFFSET -8.77824 -1.95073 1.46304
          CHANNELS 3 Zrotation Xrotation Yrotation
          JOINT rForeArm
          {
            OFFSET -28.1742 -1.7115 0.48768
            CHANNELS 3 Zrotation Xrotation Yrotation
            JOINT rHand
            {
              OFFSET -22.5879 0.773209 7.07136
              CHANNELS 3 Zrotation Xrotation Yrotation
              JOINT rThumb1
              {
                OFFSET -1.2192 -0.487915 3.41376
                CHANNELS 3 Zrotation Xrotation Yrotation
                JOINT rThumb2
                {
                  OFFSET -3.37035 -0.52449 3.41376
                  CHANNELS 3 Zrotation Xrotation Yrotation
                  End Site
                  {
                    OFFSET -1.78271 -1.18214 1.43049
                  }
                }
              }
              JOINT rIndex1
              {
                OFFSET -7.75947 0.938293 5.60832
                CHANNELS 3 Zrotation Xrotation Yrotation
                JOINT rIndex2
                {
                  OFFSET -2.54057 -0.884171 1.56538
                  CHANNELS 3 Zrotation Xrotation Yrotation
                  End Site
                  {
                    OFFSET -1.62519 -0.234802 1.16502
                  }
                }
              }
              JOINT rMid1
              {
                OFFSET -8.24714 1.18213 3.41376
                CHANNELS 3 Zrotation Xrotation Yrotation
                JOINT rMid2
                {
                  OFFSET -3.10165 -0.590103 1.0647
                  CHANNELS 3 Zrotation Xrotation Yrotation
                  End Site
                  {
                    OFFSET -2.48547 -0.328903 0.83742
                  }
                }
              }
              JOINT rRing1
              {
                OFFSET -8.82822 0.546677 1.51678
                CHANNELS 3 Zrotation Xrotation Yrotation
                JOINT rRing2
                {
                  OFFSET -2.60934 -0.819778 -0.0198488
                  CHANNELS 3 Zrotation Xrotation Yrotation
                  End Site
                  {
                    OFFSET -2.33842 -0.294052 0.168128
                  }
                }
              }
              JOINT rPinky1
              {
                OFFSET -8.27202 -0.0477905 -0.4584
                CHANNELS 3 Zrotation Xrotation Yrotation
                JOINT rPinky2
                {
                  OFFSET -1.82734 -0.647385 -0.700984
                  CHANNELS 3 Zrotation Xrotation Yrotation
                  End Site
                  {
                    OFFSET -1.69225 -0.51767 -0.607171
                  }
                }
              }
            }
          }
        }
      }
      JOINT lCollar
      {
        OFFSET 2.68224 19.2634 -4.8768
        CHANNELS 3 Zrotation Xrotation Yrotation
        JOINT lShldr
        {
          OFFSET 8.77824 -1.95073 1.46304
          CHANNELS 3 Zrotation Xrotation Yrotation
          JOINT lForeArm
          {
            OFFSET 28.1742 -1.7115 0.48768
            CHANNELS 3 Zrotation Xrotation Yrotation
            JOINT lHand
            {
              OFFSET 22.5879 0.773209 7.07136
              CHANNELS 3 Zrotation Xrotation Yrotation
              JOINT lThumb1
              {
                OFFSET 1.2192 -0.487915 3.41376
                CHANNELS 3 Zrotation Xrotation Yrotation
                JOINT lThumb2
                {
                  OFFSET 3.37035 -0.52449 3.41376
                  CHANNELS 3 Zrotation Xrotation Yrotation
                  End Site
                  {
                    OFFSET 1.78271 -1.18214 1.43049
                  }
                }
              }
              JOINT lIndex1
              {
                OFFSET 7.75947 0.938293 5.60832
                CHANNELS 3 Zrotation Xrotation Yrotation
                JOINT lIndex2
                {
                  OFFSET 2.54057 -0.884171 1.56538
                  CHANNELS 3 Zrotation Xrotation Yrotation
                  End Site
                  {
                    OFFSET 1.62519 -0.234802 1.16502
                  }
                }
              }
              JOINT lMid1
              {
                OFFSET 8.24714 1.18213 3.41376
                CHANNELS 3 Zrotation Xrotation Yrotation
                JOINT lMid2
                {
                  OFFSET 3.10165 -0.590103 1.0647
                  CHANNELS 3 Zrotation Xrotation Yrotation
                  End Site
                  {
                    OFFSET 2.48547 -0.328903 0.83742
                  }
                }
              }
              JOINT lRing1
              {
                OFFSET 8.82822 0.546677 1.51678
                CHANNELS 3 Zrotation Xrotation Yrotation
                JOINT lRing2
                {
                  OFFSET 2.60934 -0.819778 -0.0198488
                  CHANNELS 3 Zrotation Xrotation Yrotation
                  End Site
                  {
                    OFFSET 2.33842 -0.294052 0.168128
                  }
                }
              }
              JOINT lPinky1
              {
                OFFSET 8.27202 -0.0477905 -0.4584
                CHANNELS 3 Zrotation Xrotation Yrotation
                JOINT lPinky2
                {
                  OFFSET 1.82734 -0.647385 -0.700984
                  CHANNELS 3 Zrotation Xrotation Yrotation
                  End Site
                  {
                    OFFSET 1.69225 -0.51767 -0.607171
                  }
                }
              }
            }
          }
        }
      }
    }
  }
  JOINT rButtock
  {
    OFFSET -8.77824 4.35084 1.2192
    CHANNELS 3 Zrotation Xrotation Yrotation
    JOINT rThigh
    {
      OFFSET 0 -1.70687 -2.19456
      CHANNELS 3 Zrotation Xrotation Yrotation
      JOINT rShin
      {
        OFFSET 0 -36.8199 0.73152
        CHANNELS 3 Zrotation Xrotation Yrotation
        JOINT rFoot
        {
          OFFSET 0.73152 -45.1104 -5.12064
          CHANNELS 3 Zrotation Xrotation Yrotation
          End Site
          {
            OFFSET -1.1221 -3.69964 12.103
          }
        }
      }
    }
  }
  JOINT lButtock
  {
    OFFSET 8.77824 4.35084 1.2192
    CHANNELS 3 Zrotation Xrotation Yrotation
    JOINT lThigh
    {
      OFFSET 0 -1.70687 -2.19456
      CHANNELS 3 Zrotation Xrotation Yrotation
      JOINT lShin
      {
        OFFSET 0 -36.8199 0.73152
        CHANNELS 3 Zrotation Xrotation Yrotation
        JOINT lFoot
        {
          OFFSET -0.73152 -45.1104 -5.12064
          CHANNELS 3 Zrotation Xrotation Yrotation
          End Site
          {
            OFFSET 1.1221 -3.69964 12.103
          }
        }
      }
    }
  }
}
MOTION
Frames:	4
Frame Time:	0.00833333
0.0 0.0 0.0 0.0 0.0 0.0 0.0 0.0 0.0 0.0 0.0 0.0 0.0 0.0 0.0 0.0 0.0 0.0 0.0 0.0 0.0 0.0 0.0 0.0 0.0 0.0 0.0 0.0 0.0 0.0 0.0 0.0 0.0 0.0 0.0 0.0 0.0 0.0 0.0 0.0 0.0 0.0 0.0 0.0 0.0 0.0 0.0 0.0 0.0 0.0 0.0 0.0 0.0 0.0 0.0 0.0 0.0 0.0 0.0 0.0 0.0 0.0 0.0 0.0 0.0 0.0 0.0 0.0 0.0 0.0 0.0 0.0 0.0 0.0 0.0 0.0 0.0 0.0 0.0 0.0 0.0 0.0 0.0 0.0 0.0 0.0 0.0 0.0 0.0 0.0 0.0 0.0 0.0 0.0 0.0 0.0 0.0 0.0 0.0 0.0 0.0 0.0 0.0 0.0 0.0 0.0 0.0 0.0 0.0 0.0 0.0 0.0 0.0 0.0 0.0 0.0 0.0 0.0 0.0 0.0 0.0 0.0 0.0 0.0 0.0 0.0 0.0 0.0 0.0 0.0 0.0 0.0
0.0057 62.1159 -0.22769999999999999 -177.055201 85.817893 -177.76453 -1.522628 1.772612 60.059331 8.387507 4.241472 -52.934104 -9.764517 -13.813429 -57.793564 28.368694 -26.764434 36.117831 31.565017 -1.278677 -4.521858 28.209033 -15.472614 -56.796951 -89.975167 -37.003598 164.412394 12.432963 -52.46978 8.441814 -4.765228 48.260922 -177.93494 166.521506 -7.330445 98.840814 0.324677 -14.918338 22.355856 134.905224 14.377603 -110.539179 -24.163161 -19.214611 -107.541916 -78.286047 -30.717944 91.660089 -24.478752 1.832012 -108.818092 -161.833554 -41.448177 145.332659 -88.668991 28.128253 -100.881567 13.193583 0.872032 -4.307532 -128.437141 34.085705 -69.160822 -25.198877 -40.669497 -26.218217 -8.235511 65.908299 -66.877667 -14.499905 -19.224787 -12.083979 159.877312 19.629207 23.067675 -82.455265 -62.344969 -32.336236 88.829656 22.005345 -36.915716 -53.207575 -58.616714 -16.353837 -25.75771 -39.350745 -26.939467 -88.784959 -59.805929 -34.14523 133.663451 40.857471 -113.549105 37.595704 54.286245 -50.662631 85.094608 32.860895 102.473739 71.033088 -81.113693 92.509544 121.890335 41.843519 67.497626 4.381215 -18.274219 5.780925 17.848913 -47.084511 22.508473 -1.979293 51.16376 1.517334 3.549437 -5.75677 35.291341 28.705799 76.800894 -26.789787 -0.534325 55.389127 -180.0 -2.43086 54.74237 -177.023957 -6.023919 4.063659 -129.087541 75.039083 39.860071 -93.509007
0.1663 57.887 -0.2889 -7.563399 -20.173282 0.502141 0.733538 14.954497 -0.15977 1.813138 -12.079544 17.566149 10.247229 24.351354 110.788106 -27.875253 13.76741 -84.390263 0.150464 -0.0016 -1.218549 -0.648262 -0.002385 0.421604 -144.966997 39.599416 147.340453 105.968761 -32.799954 118.573678 -5.044021 12.630049 115.377014 -9.313179 -58.471761 -13.282386 -82.129762 38.4203 43.618703 175.313437 -48.649959 77.227189 -91.51177 43.307308 75.846013 -163.764181 -10.40773 117.352036 -110.093286 57.103611 98.843053 -8.856497 33.963539 8.21673 -2.323793 0.484619 0.240303 -14.789542 60.963024 26.251048 -159.265773 56.708476 -151.197452 -143.554148 -11.669055 -130.409822 150.648113 14.178574 -158.159978 43.490409 4.95018 12.293714 73.656894 0.26779 140.16513 -30.022768 -43.878288 -23.800217 -50.775965 -41.69658 -12.070759 150.10782 -14.953725 -119.554421 84.457675 41.342836 -69.545208 -64.174747 -62.842977 -16.753366 165.816378 -20.750099 -146.114786 31.49328 56.973796 -24.418319 145.102289 0.508119 179.32771 142.557496 -45.33761 165.608004 -0.312339 -2.90651 3.20322 9.635705 -24.400398 4.890235 -0.013821 -0.038281 0.017761 -20.617991 -37.558738 -122.252008 -97.764256 -1.084962 -110.49328 106.465327 3.996852 164.032137 0.50237 -0.471834 -0.641779 60.068559 -40.131718 49.233543 -18.696448 64.484076 -27.132885 46.042749 36.84861 12.630169
0.029 56.1249 -0.2995 -7.766316 -19.613838 1.182789 1.7076 13.346091 -0.325033 0.312938 -11.346239 18.556523 10.597939 22.127603 93.537267 -28.267544 4.575226 -70.1613 1.030588 0.03098 3.443587 -0.937451 0.004755 -0.581178 -5.904709 -74.048414 -24.883735 -95.815577 -36.485967 -109.732901 -67.76939 54.914628 -85.641337 -158.306032 0.912472 144.626336 -158.984329 1.123136 86.714353 -71.775272 -0.15562 23.135146 -45.600296 38.048209 38.666677 -67.959769 49.219791 48.409823 -36.149577 51.695094 29.840659 -84.607729 61.029722 74.674097 -64.008185 69.145909 81.228608 -68.839788 -82.929528 -89.825209 -155.738969 56.823593 -152.978597 -149.732353 14.728487 -138.425036 155.228143 -4.088101 -160.210717 161.452006 -56.827991 122.504959 -1.061746 67.815081 117.022968 -148.821367 -43.792458 -135.338995 121.69618 29.849486 -71.126754 -175.43967 -32.298208 -82.959325 -29.794513 -45.362803 -0.210192 0.052436 21.953586 -1.35323 2.235911 1.138138 -2.403545 33.236951 55.277039 -29.394055 77.42811 -75.511765 95.161891 121.933063 -82.52241 148.473088 30.010771 -38.214075 25.330842 77.493249 -54.276273 81.420717 -162.162007 75.739414 -14.684622 154.34613 34.623599 -103.097067 -87.695468 -18.969846 14.352866 81.082044 28.32088 20.609289 164.934417 76.559077 12.508479 -135.451862 7.969509 78.025978 68.818431 5.171464 -103.382193 40.529135 14.847129 0.498081
